<svg width="126" height="41" viewBox="0 0 126 41" fill="none" xmlns="http://www.w3.org/2000/svg">
<g clip-path="url(#clip0_1_267)">
<path d="M60.6618 30L54.4218 12.12H57.9738L62.8698 26.928H62.1738L67.0698 12.12H70.6218L64.4058 30H60.6618ZM72.3562 30V16.944H75.5002V30H72.3562ZM72.3562 15.48V12.12H75.5002V15.48H72.3562ZM84.3551 30.144C82.8831 30.144 81.7391 29.744 80.9231 28.944C80.1231 28.128 79.7231 26.984 79.7231 25.512V19.752H77.4671V16.944H77.7071C78.3471 16.944 78.8431 16.776 79.1951 16.44C79.5471 16.104 79.7231 15.616 79.7231 14.976V13.968H82.8671V16.944H85.8671V19.752H82.8671V25.344C82.8671 25.776 82.9391 26.144 83.0831 26.448C83.2431 26.752 83.4831 26.984 83.8031 27.144C84.1391 27.304 84.5631 27.384 85.0751 27.384C85.1871 27.384 85.3151 27.376 85.4591 27.36C85.6191 27.344 85.7711 27.328 85.9151 27.312V30C85.6911 30.032 85.4351 30.064 85.1471 30.096C84.8591 30.128 84.5951 30.144 84.3551 30.144ZM92.2303 30.288C91.3183 30.288 90.5263 30.136 89.8543 29.832C89.1823 29.528 88.6623 29.096 88.2943 28.536C87.9263 27.96 87.7423 27.296 87.7423 26.544C87.7423 25.824 87.9023 25.184 88.2223 24.624C88.5423 24.048 89.0383 23.568 89.7103 23.184C90.3823 22.8 91.2303 22.528 92.2543 22.368L96.5263 21.672V24.072L92.8543 24.696C92.2303 24.808 91.7663 25.008 91.4623 25.296C91.1583 25.584 91.0063 25.96 91.0063 26.424C91.0063 26.872 91.1743 27.232 91.5103 27.504C91.8623 27.76 92.2943 27.888 92.8063 27.888C93.4623 27.888 94.0383 27.752 94.5343 27.48C95.0463 27.192 95.4383 26.8 95.7103 26.304C95.9983 25.808 96.1423 25.264 96.1423 24.672V21.312C96.1423 20.752 95.9183 20.288 95.4703 19.92C95.0383 19.536 94.4623 19.344 93.7423 19.344C93.0703 19.344 92.4703 19.528 91.9423 19.896C91.4303 20.248 91.0543 20.72 90.8143 21.312L88.2463 20.064C88.5023 19.376 88.9023 18.784 89.4463 18.288C90.0063 17.776 90.6623 17.376 91.4143 17.088C92.1663 16.8 92.9823 16.656 93.8623 16.656C94.9343 16.656 95.8783 16.856 96.6943 17.256C97.5103 17.64 98.1423 18.184 98.5903 18.888C99.0543 19.576 99.2863 20.384 99.2863 21.312V30H96.3103V27.768L96.9823 27.72C96.6463 28.28 96.2463 28.752 95.7823 29.136C95.3183 29.504 94.7903 29.792 94.1983 30C93.6063 30.192 92.9503 30.288 92.2303 30.288ZM102.192 30V11.832H105.336V30H102.192ZM108.239 30V16.944H111.383V30H108.239ZM108.239 15.48V12.12H111.383V15.48H108.239ZM114.286 30V16.944H117.43V30H114.286ZM114.286 15.48V12.12H117.43V15.48H114.286Z" fill="#232E35"/>
<path d="M20 40.5C31 40.5 40 31.5 40 20.5C40 9.5 31 0.5 20 0.5C9 0.5 0 9.5 0 20.5C0 31.5 9 40.5 20 40.5ZM28.2 13C30.4 13 32.2 14.8 32.2 17C32.2 19.2 30.4 21 28.2 21C26 21 24.2 19.2 24.2 17C24.2 14.8 26 13 28.2 13ZM11.5 14.1C13.3 13 15.7 13.7 16.8 15.5L22.4 25.2C23.5 27 22.8 29.4 21 30.5C19.2 31.6 16.8 30.9 15.7 29.1L10.1 19.4C9 17.5 9.7 15.1 11.5 14.1Z" fill="#232E35"/>
</g>
<defs>
<clipPath id="clip0_1_267">
<rect width="126" height="41" fill="white"/>
</clipPath>
</defs>
</svg>
